REM DIRINDEX 1\2,1\3,1\4
REM DIRNAME cjc031,folder01,folder02,folder03
TITLE ""
FILE "CD1-17.mp3" MP3
  TRACK 01 AUDIO
    TITLE "2:cjc031_1016"
    INDEX 01 00:00:00
  TRACK 02 AUDIO
    TITLE "3:cjc031_1017"
    INDEX 01 00:01:11
  TRACK 03 AUDIO
    TITLE "2:cjc031_1018"
    INDEX 01 00:02:59
  TRACK 04 AUDIO
    TITLE "3:cjc031_1019"
    INDEX 01 00:04:19
  TRACK 05 AUDIO
    TITLE "2:cjc031_1020"
    INDEX 01 00:05:57
  TRACK 06 AUDIO
    TITLE "3:cjc031_1021"
    INDEX 01 00:07:21
  TRACK 07 AUDIO
    TITLE "2:cjc031_1022"
    INDEX 01 00:08:68
  TRACK 08 AUDIO
    TITLE "3:cjc031_1023"
    INDEX 01 00:10:16
  TRACK 09 AUDIO
    TITLE "2:cjc031_1024"
    INDEX 01 00:11:66
  TRACK 10 AUDIO
    TITLE "3:cjc031_1025"
    INDEX 01 00:13:33
  TRACK 11 AUDIO
    TITLE "2:cjc031_1026"
    INDEX 01 00:15:09
  TRACK 12 AUDIO
    TITLE "3:cjc031_1027"
    INDEX 01 00:16:20
  TRACK 13 AUDIO
    TITLE "2:cjc031_1028"
    INDEX 01 00:17:67
  TRACK 14 AUDIO
    TITLE "3:cjc031_1029"
    INDEX 01 00:19:13
  TRACK 15 AUDIO
    TITLE "2:cjc031_1030"
    INDEX 01 00:20:43
  TRACK 16 AUDIO
    TITLE "3:cjc031_1031"
    INDEX 01 00:22:09
  TRACK 17 AUDIO
    TITLE "2:cjc031_1032"
    INDEX 01 00:23:42
  TRACK 18 AUDIO
    TITLE "3:cjc031_1033"
    INDEX 01 00:25:05
  TRACK 19 AUDIO
    TITLE "2:cjc031_1034"
    INDEX 01 00:26:15
  TRACK 20 AUDIO
    TITLE "3:cjc031_1035"
    INDEX 01 00:27:34
  TRACK 21 AUDIO
    TITLE "2:cjc031_1036"
    INDEX 01 00:28:49
  TRACK 22 AUDIO
    TITLE "3:cjc031_1037"
    INDEX 01 00:30:14
  TRACK 23 AUDIO
    TITLE "2:cjc031_1038"
    INDEX 01 00:31:55
  TRACK 24 AUDIO
    TITLE "3:cjc031_1039"
    INDEX 01 00:33:15
  TRACK 25 AUDIO
    TITLE "2:cjc031_1040"
    INDEX 01 00:34:71
  TRACK 26 AUDIO
    TITLE "3:cjc031_1041"
    INDEX 01 00:36:13
  TRACK 27 AUDIO
    TITLE "2:cjc031_1042"
    INDEX 01 00:37:56
  TRACK 28 AUDIO
    TITLE "3:cjc031_1043"
    INDEX 01 00:38:71
  TRACK 29 AUDIO
    TITLE "2:cjc031_1044"
    INDEX 01 00:40:32
  TRACK 30 AUDIO
    TITLE "3:cjc031_1045"
    INDEX 01 00:42:06
  TRACK 31 AUDIO
    TITLE "2:cjc031_1046"
    INDEX 01 00:43:60
  TRACK 32 AUDIO
    TITLE "3:cjc031_1047"
    INDEX 01 00:44:73
  TRACK 33 AUDIO
    TITLE "2:cjc031_1048"
    INDEX 01 00:46:23
  TRACK 34 AUDIO
    TITLE "3:cjc031_1049"
    INDEX 01 00:47:46
  TRACK 35 AUDIO
    TITLE "2:cjc031_1050"
    INDEX 01 00:49:16
  TRACK 36 AUDIO
    TITLE "3:cjc031_1051"
    INDEX 01 00:50:35
  TRACK 37 AUDIO
    TITLE "2:cjc031_1052"
    INDEX 01 00:52:02
  TRACK 38 AUDIO
    TITLE "3:cjc031_1053"
    INDEX 01 00:53:57
  TRACK 39 AUDIO
    TITLE "2:cjc031_1054"
    INDEX 01 00:55:36
  TRACK 40 AUDIO
    TITLE "3:cjc031_1055"
    INDEX 01 00:56:55
  TRACK 41 AUDIO
    TITLE "2:cjc031_1056"
    INDEX 01 00:58:18
  TRACK 42 AUDIO
    TITLE "3:cjc031_1057"
    INDEX 01 00:59:39
  TRACK 43 AUDIO
    TITLE "2:cjc031_1058"
    INDEX 01 01:01:52
  TRACK 44 AUDIO
    TITLE "3:cjc031_1059"
    INDEX 01 01:02:63
  TRACK 45 AUDIO
    TITLE "2:cjc031_1060"
    INDEX 01 01:04:15
  TRACK 46 AUDIO
    TITLE "3:cjc031_1061"
    INDEX 01 01:05:26
  TRACK 47 AUDIO
    TITLE "2:cjc031_1062"
    INDEX 01 01:06:71
  TRACK 48 AUDIO
    TITLE "3:cjc031_1063"
    INDEX 01 01:08:19
  TRACK 49 AUDIO
    TITLE "2:cjc031_1064"
    INDEX 01 01:09:40
  TRACK 50 AUDIO
    TITLE "3:cjc031_1065"
    INDEX 01 01:11:21
  TRACK 51 AUDIO
    TITLE "2:cjc031_1066"
    INDEX 01 01:12:62
  TRACK 52 AUDIO
    TITLE "3:cjc031_1067"
    INDEX 01 01:14:10
  TRACK 53 AUDIO
    TITLE "2:cjc031_1068"
    INDEX 01 01:15:66
  TRACK 54 AUDIO
    TITLE "3:cjc031_1069"
    INDEX 01 01:17:16
  TRACK 55 AUDIO
    TITLE "2:cjc031_1070"
    INDEX 01 01:18:60
  TRACK 56 AUDIO
    TITLE "3:cjc031_1071"
    INDEX 01 01:19:72
  TRACK 57 AUDIO
    TITLE "2:cjc031_1072"
    INDEX 01 01:21:43
  TRACK 58 AUDIO
    TITLE "3:cjc031_1073"
    INDEX 01 01:22:60
  TRACK 59 AUDIO
    TITLE "2:cjc031_1074"
    INDEX 01 01:24:41
  TRACK 60 AUDIO
    TITLE "3:cjc031_1075"
    INDEX 01 01:25:62
  TRACK 61 AUDIO
    TITLE "2:cjc031_1076"
    INDEX 01 01:27:22
  TRACK 62 AUDIO
    TITLE "3:cjc031_1077"
    INDEX 01 01:28:33
  TRACK 63 AUDIO
    TITLE "2:cjc031_1078"
    INDEX 01 01:29:70
  TRACK 64 AUDIO
    TITLE "3:cjc031_1079"
    INDEX 01 01:31:18
  TRACK 65 AUDIO
    TITLE "2:cjc031_1080"
    INDEX 01 01:32:49
  TRACK 66 AUDIO
    TITLE "3:cjc031_1081"
    INDEX 01 01:33:72
  TRACK 67 AUDIO
    TITLE "2:cjc031_1082"
    INDEX 01 01:35:59
  TRACK 68 AUDIO
    TITLE "3:cjc031_1083"
    INDEX 01 01:37:15
  TRACK 69 AUDIO
    TITLE "2:cjc031_1084"
    INDEX 01 01:38:59
  TRACK 70 AUDIO
    TITLE "3:cjc031_1085"
    INDEX 01 01:40:15
  TRACK 71 AUDIO
    TITLE "2:cjc031_1086"
    INDEX 01 01:41:46
  TRACK 72 AUDIO
    TITLE "3:cjc031_1087"
    INDEX 01 01:42:65
  TRACK 73 AUDIO
    TITLE "2:cjc031_1088"
    INDEX 01 01:44:34
  TRACK 74 AUDIO
    TITLE "3:cjc031_1089"
    INDEX 01 01:45:63
  TRACK 75 AUDIO
    TITLE "2:cjc031_1090"
    INDEX 01 01:47:40
  TRACK 76 AUDIO
    TITLE "3:cjc031_1091"
    INDEX 01 01:48:60
  TRACK 77 AUDIO
    TITLE "2:cjc031_1092"
    INDEX 01 01:50:37
  TRACK 78 AUDIO
    TITLE "3:cjc031_1093"
    INDEX 01 01:51:68
  TRACK 79 AUDIO
    TITLE "2:cjc031_1094"
    INDEX 01 01:53:10
  TRACK 80 AUDIO
    TITLE "3:cjc031_1095"
    INDEX 01 01:54:29
  TRACK 81 AUDIO
    TITLE "0:"
    INDEX 01 01:55:63
